<svg xmlns="http://www.w3.org/2000/svg" viewBox="0 0 1646.92 1445.16"><defs><style>.cls-1,.cls-9{fill:#34e19f;}.cls-11,.cls-14,.cls-2,.cls-3,.cls-7{fill:none;}.cls-2{stroke:#f4f4f4;}.cls-2,.cls-3,.cls-5{stroke-miterlimit:10;}.cls-11,.cls-12,.cls-13,.cls-14,.cls-15,.cls-2,.cls-3,.cls-4,.cls-5,.cls-6,.cls-7,.cls-8,.cls-9{stroke-width:2px;}.cls-3{stroke:#34e19f;}.cls-13,.cls-4{fill:#fff;}.cls-11,.cls-12,.cls-15,.cls-4,.cls-5,.cls-7,.cls-8,.cls-9{stroke:#240645;}.cls-11,.cls-12,.cls-13,.cls-14,.cls-15,.cls-4,.cls-6,.cls-8,.cls-9{stroke-linecap:round;}.cls-11,.cls-12,.cls-13,.cls-14,.cls-15,.cls-4,.cls-6,.cls-7,.cls-8,.cls-9{stroke-linejoin:round;}.cls-5,.cls-8{fill:#f4f4f4;}.cls-15,.cls-6{fill:#dd3e3a;}.cls-13,.cls-6{stroke:#dd3e3a;}.cls-7{stroke-linecap:square;}.cls-10,.cls-12{fill:#240645;}.cls-14{stroke:#fff;}</style></defs><title>BuildWebsites</title><g id="Layer_6" data-name="Layer 6"><path class="cls-1" d="M1361.57,520.11c199.1,297.1,477.59,479.63,128.6,713.5s-1111,265-1310.09-32c-105.47-157.39-225-554.35-94.49-761.67C175.27,297.41,372.26,416,460.89,327.41c68.15-68.09,169.2-140,240.54-187.78C994-56.4,1128.23,80.57,1281.27,305,1310.81,348.31,1329.36,472,1361.57,520.11Z" transform="translate(-12.27 -45.5)"></path><path class="cls-2" d="M1475.8,699.12c111.81,354.36,336.22,617.66-80,749s-1185.19-60-1297-414.37C39.55,846,36.26,415.32,226.88,246.69c131-115.9,292.83,59.83,407.06-2.61,87.83-48,209.58-90.2,294.66-117C1277.5,17,1371.42,192.73,1458.51,461.17,1475.33,513,1457.71,641.78,1475.8,699.12Z" transform="translate(-12.27 -45.5)"></path><path class="cls-3" d="M1261.07,416.79c258.48,240.92,567.48,353.79,284.61,657.27S537,1579,278.55,1338.12C141.62,1210.49-46.87,851.61,31.85,622.85,86,465.63,286.16,539.32,351.42,434.19c50.18-80.83,131.14-172.72,189-234.75C777.47-54.93,937.51,46.57,1135.31,228,1173.49,263,1219.24,377.8,1261.07,416.79Z" transform="translate(-12.27 -45.5)"></path></g><g id="web_BG" data-name="web BG"><rect class="cls-4" x="291.86" y="354.83" width="1144.76" height="897.39"></rect><polyline class="cls-5" points="291.68 422.79 291.68 355.89 1436.44 355.89 1436.44 422.79"></polyline></g><g id="website"><path class="cls-6" d="M1277.52,604.88l-76.35,20.77a15.53,15.53,0,0,0-11,11.17l-6,23.7a15.54,15.54,0,0,1-10.43,11l-15.82,4.94-47.51,12.78a15.55,15.55,0,0,0-11.5,15h0a15.53,15.53,0,0,1-15.54,15.53H463.52V504.86H1289v85A15.53,15.53,0,0,1,1277.52,604.88Z" transform="translate(-12.27 -45.5)"></path><line class="cls-7" x1="630.09" y1="393.35" x2="684.39" y2="393.35"></line><line class="cls-7" x1="754.48" y1="393.35" x2="808.78" y2="393.35"></line><line class="cls-7" x1="878.88" y1="393.35" x2="933.17" y2="393.35"></line><line class="cls-7" x1="1003.27" y1="393.35" x2="1057.57" y2="393.35"></line><rect class="cls-8" x="451.25" y="722.81" width="233.14" height="233.14"></rect><rect class="cls-9" x="748.59" y="722.81" width="233.14" height="233.14"></rect><path class="cls-9" d="M1289.18,790.12c-11.71,0-20.38-9.57-20.89-20.88,0-.31,0-.62,0-.93H1058.21v233.14h233.13V790A19.55,19.55,0,0,1,1289.18,790.12Z" transform="translate(-12.27 -45.5)"></path><circle class="cls-10" cx="300.08" cy="286.03" r="8.39"></circle><circle class="cls-10" cx="324.01" cy="286.03" r="8.39"></circle><circle class="cls-10" cx="347.94" cy="286.03" r="8.39"></circle><path class="cls-4" d="M696.66,1001.45" transform="translate(-12.27 -45.5)"></path><path class="cls-4" d="M463.52,768.31" transform="translate(-12.27 -45.5)"></path><path class="cls-4" d="M463.52,1001.45" transform="translate(-12.27 -45.5)"></path><path class="cls-4" d="M696.66,768.31" transform="translate(-12.27 -45.5)"></path><path class="cls-4" d="M1291.34,1001.45" transform="translate(-12.27 -45.5)"></path><path class="cls-4" d="M1058.21,768.31" transform="translate(-12.27 -45.5)"></path><path class="cls-4" d="M1058.21,1001.45" transform="translate(-12.27 -45.5)"></path><path class="cls-4" d="M1291.34,768.31" transform="translate(-12.27 -45.5)"></path><rect class="cls-8" x="451.25" y="971.92" width="74.74" height="34.4" rx="4"></rect><line class="cls-11" x1="536.99" y1="988.91" x2="632.8" y2="988.91"></line><line class="cls-11" x1="536.99" y1="975.78" x2="653.74" y2="975.78"></line><rect class="cls-8" x="750.34" y="971.92" width="74.74" height="34.4" rx="4"></rect><line class="cls-11" x1="836.08" y1="988.91" x2="931.89" y2="988.91"></line><line class="cls-11" x1="836.08" y1="975.78" x2="952.83" y2="975.78"></line><rect class="cls-8" x="1044.09" y="971.92" width="74.74" height="34.4" rx="4"></rect><line class="cls-11" x1="1129.83" y1="988.91" x2="1225.64" y2="988.91"></line><line class="cls-11" x1="1129.83" y1="975.78" x2="1246.58" y2="975.78"></line><path class="cls-1" d="M1155.64,601.77" transform="translate(-12.27 -45.5)"></path><rect class="cls-4" x="486.01" y="308.42" width="827.11" height="24.43" rx="12.21"></rect><path class="cls-11" d="M473.49,373.22h0a7.08,7.08,0,0,1-7.82-6.26h0a7.08,7.08,0,0,1,6.26-7.83h0a7.08,7.08,0,0,1,7.82,6.27h0" transform="translate(-12.27 -45.5)"></path><polyline class="cls-11" points="438.56 314.05 445.11 320.6 438.74 326.97"></polyline><line class="cls-11" x1="428.29" y1="320.6" x2="445.09" y2="320.6"></line><polyline class="cls-11" points="411.24 314.05 404.69 320.6 411.06 326.97"></polyline><line class="cls-11" x1="421.5" y1="320.6" x2="404.7" y2="320.6"></line><polyline class="cls-11" points="462.92 318.01 467.59 320.05 469.63 315.38"></polyline><circle class="cls-4" cx="568.13" cy="838.18" r="82.43"></circle></g><g id="Layer_5" data-name="Layer 5"><polygon class="cls-12" points="701.47 1119.25 840.41 1082.52 776 1291.27 701.47 1119.25"></polygon><polygon class="cls-8" points="1007.29 1262.17 775.97 1291.24 746.69 1071.15 978 1042.08 1007.29 1262.17"></polygon><path class="cls-4" d="M1019.56,1307.68" transform="translate(-12.27 -45.5)"></path><path class="cls-4" d="M759,1116.65" transform="translate(-12.27 -45.5)"></path><path class="cls-4" d="M990.27,1087.58" transform="translate(-12.27 -45.5)"></path><path class="cls-4" d="M788.24,1336.75" transform="translate(-12.27 -45.5)"></path><polygon class="cls-4" points="819.32 955.76 910.67 955.76 898.08 888.79 821.76 888.79 819.32 955.76"></polygon><path class="cls-4" d="M915.89,984.27s8.28,16.45-3.37,101.44a115.44,115.44,0,0,1,15,0s42.2-125.12-10.19-155c-25.17-14.36-67.87-8-92.81,7-44.2,26.61-13.87,163.67-13.87,163.67a113.38,113.38,0,0,1,14.95,0c-2.77-47.47,10.26-117.94,10.26-117.94" transform="translate(-12.27 -45.5)"></path><path class="cls-4" d="M870.46,937.72" transform="translate(-12.27 -45.5)"></path><path class="cls-12" d="M896.1,922.74c0,16.62-8.5,6.74-23.46,6.74S848,939.36,848,922.74s9.1-24.26,24.06-24.26S896.1,906.13,896.1,922.74Z" transform="translate(-12.27 -45.5)"></path><circle class="cls-10" cx="859.78" cy="881.01" r="2.17"></circle><path class="cls-11" d="M848.73,930.93s10.68,28.68,21.14,31.62c12.46,3.5,23-24.08,23-24.08" transform="translate(-12.27 -45.5)"></path><path class="cls-12" d="M866.9,945.2a23.83,23.83,0,0,1-18.53-15.07c-4.74-11.8,4.28-23.77,4.28-23.77s7.7-8.37,19.41-7.88c7.54.32,19.25,7.22,20.79,10,1.87,3.34,8.77,23.25,1.33,31.91" transform="translate(-12.27 -45.5)"></path><path class="cls-11" d="M869.3,946.89l.57,8.65s.81,1.55,2.77,0" transform="translate(-12.27 -45.5)"></path><path class="cls-12" d="M848,922.74c1,38.27,50.76,24.39,52.77,11.14-4.08.65-13.29-11.73-22.57-11.73" transform="translate(-12.27 -45.5)"></path><polygon class="cls-12" points="823.57 938.33 827.37 955.56 820.65 955.56 823.57 938.33"></polygon><polygon class="cls-12" points="903.69 938.79 899.43 955.49 905.95 955.29 903.69 938.79"></polygon><polygon class="cls-13" points="581.43 1120.15 558.83 1103.07 563 1131.1 567.27 1123.44 573.36 1133.59 578.76 1130.39 572.67 1120.24 581.43 1120.15"></polygon><polygon class="cls-12" points="1066.14 1038.96 1044.84 1253.19 1081.5 1252.92 1066.14 1038.96"></polygon><polygon class="cls-8" points="1288.29 1273.6 1055.5 1260.74 1066.14 1038.96 1298.92 1051.82 1288.29 1273.6"></polygon><polygon class="cls-4" points="793.99 1237.86 866.83 1085.04 984.71 1210.16 793.99 1237.86"></polygon><polygon class="cls-4" points="1232.25 1079.5 1141.4 1074.03 1091.24 1149.97 1131.93 1231.38 1222.78 1236.85 1272.94 1160.91 1232.25 1079.5"></polygon></g><g id="Layer_12" data-name="Layer 12"><path class="cls-4" d="M907.87,1097.94c-.76-6.83,4.65-12.23,4.65-12.23h15V1092a15.7,15.7,0,0,1-1.06,5.66l-2.64,6.76c-1.1,3.26-3.65,5.3-6.39,5.12h0c-3.36-.22-6.79-1-7-5.39l.93-10.68" transform="translate(-12.27 -45.5)"></path><path class="cls-4" d="M828,1108c.76-6.83-2.94-7-2.94-7l-14.43.44-.53,4.92a18.53,18.53,0,0,0,1.56,7.45l1.46,3.35c2.53,3.66,5.5,5.11,8.25,4.93h0c3.36-.22,6.78-1,7-5.39l-2.67-10.39" transform="translate(-12.27 -45.5)"></path></g><g id="Scaff"><rect class="cls-12" x="106.41" y="600.05" width="408.07" height="18.13"></rect><rect class="cls-12" x="106.41" y="527.79" width="408.07" height="9.07"></rect><polygon class="cls-12" points="506.22 1056.08 107.77 937.94 111.87 929.46 510.32 1047.6 506.22 1056.08"></polygon><polygon class="cls-12" points="109.48 1056.97 507.93 918.46 512.71 926.72 114.26 1065.23 109.48 1056.97"></polygon><polygon class="cls-12" points="506.22 840.11 107.77 721.98 111.87 713.49 510.32 831.63 506.22 840.11"></polygon><polygon class="cls-12" points="109.48 841 507.93 702.49 512.71 710.75 114.26 849.26 109.48 841"></polygon><rect class="cls-12" x="106.41" y="434.73" width="408.07" height="9.07"></rect><rect class="cls-12" x="106.41" y="1118.33" width="408.07" height="9.07"></rect><rect class="cls-12" x="106.41" y="1207.8" width="408.07" height="9.07"></rect><rect class="cls-12" x="106.41" y="642" width="408.07" height="9.07"></rect><path class="cls-12" d="M110.67,413.39h2.4a4.26,4.26,0,0,1,4.26,4.26v881.5a0,0,0,0,1,0,0H106.41a0,0,0,0,1,0,0V417.65A4.26,4.26,0,0,1,110.67,413.39Z"></path><rect class="cls-12" x="95.17" y="1291.98" width="33.36" height="11.09"></rect><rect class="cls-12" x="492.63" y="1291.98" width="33.36" height="11.09"></rect><path class="cls-12" d="M507.82,413.39h2.4a4.26,4.26,0,0,1,4.26,4.26v881.5a0,0,0,0,1,0,0H503.56a0,0,0,0,1,0,0V417.65a4.26,4.26,0,0,1,4.26-4.26Z"></path></g><g id="woman"><polygon class="cls-4" points="1228.82 742.49 1232.98 759.37 1248.91 766.72 1255.3 738.71 1251.38 731.19 1232.21 733.78 1228.82 742.49"></polygon><path class="cls-6" d="M1106.93,692.35l6.21,6a5.7,5.7,0,0,0,7.28-1.92l1.1-1.63a5.72,5.72,0,0,1,6.67-2.18l5.09,1.84a5.7,5.7,0,0,0,7.06-2.85l.38-.78a5.72,5.72,0,0,1,7.36-2.74l3,1.3a5.71,5.71,0,0,0,7.2-2.45h0a5.72,5.72,0,0,1,8.64-1.56l1.41,1.19-2.44-10.11Z" transform="translate(-12.27 -45.5)"></path><path class="cls-11" d="M1315.71,1138.47c17.92,20.58,119.42,41.52,158.1-2.48" transform="translate(-12.27 -45.5)"></path><polygon class="cls-4" points="1233.08 1336.23 1252.25 1336.23 1385.79 829.19 1366.63 829.19 1233.08 1336.23"></polygon><rect class="cls-4" x="1355.91" y="886.86" width="52.33" height="3.55"></rect><rect class="cls-4" x="1340.82" y="944.53" width="52.49" height="3.55"></rect><rect class="cls-4" x="1325.74" y="1002.19" width="51.87" height="3.55"></rect><rect class="cls-4" x="1310.66" y="1059.86" width="56.41" height="3.55"></rect><rect class="cls-4" x="1295.58" y="1117.53" width="53.55" height="3.55"></rect><rect class="cls-4" x="1280.49" y="1175.2" width="56.66" height="3.55"></rect><rect class="cls-4" x="1265.41" y="1232.86" width="63.17" height="3.55"></rect><rect class="cls-4" x="1250.33" y="1290.53" width="63.17" height="3.55"></rect><rect class="cls-4" x="1365.98" y="829.19" width="63.17" height="3.55"></rect><polygon class="cls-12" points="1529.14 1335.95 1509.98 1335.95 1383.82 829.19 1402.98 829.19 1529.14 1335.95"></polygon><polygon class="cls-12" points="1397.32 890.41 1460.49 890.41 1457.92 886.86 1397.32 886.86 1397.32 890.41"></polygon><rect class="cls-12" x="1430.6" y="990.03" width="57.25" height="3.55" transform="translate(2906.18 1938.1) rotate(180)"></rect><polygon class="cls-12" points="1430.04 1005.74 1490.66 1005.74 1490.66 1002.19 1427.49 1002.19 1430.04 1005.74"></polygon><rect class="cls-12" x="1454.84" y="1105.36" width="63.17" height="3.55" transform="translate(2960.58 2168.77) rotate(180)"></rect><rect class="cls-12" x="1469.92" y="1163.03" width="63.17" height="3.55" transform="translate(2990.74 2284.11) rotate(180)"></rect><rect class="cls-12" x="1485" y="1220.7" width="63.17" height="3.55" transform="translate(3020.91 2399.44) rotate(180)"></rect><rect class="cls-12" x="1500.09" y="1278.37" width="63.17" height="3.55" transform="translate(3051.07 2514.78) rotate(180)"></rect><rect class="cls-12" x="1515.17" y="1336.03" width="63.17" height="3.55" transform="translate(3081.24 2630.11) rotate(180)"></rect><polygon class="cls-12" points="1579.8 1336.52 1562.06 1336.52 1428.07 829.19 1445.81 829.19 1579.8 1336.52"></polygon><path class="cls-4" d="M1416.94,865.66l27.17,6.77a1.15,1.15,0,0,1,.83,1.1h0a1.15,1.15,0,0,1-1.17,1.14l-22.31-.41-7.1-1.77Z" transform="translate(-12.27 -45.5)"></path><rect class="cls-4" x="1144.97" y="720" width="6.56" height="19.56" transform="translate(-162.42 277.81) rotate(-15.06)"></rect><polyline class="cls-11" points="1133.87 674.29 1132.09 667.68 1096.68 666.33 1093.71 656.17 1095.72 655.63"></polyline><rect class="cls-11" x="1107.71" y="684.17" width="61.1" height="14.11" transform="translate(-152.75 273.9) rotate(-15.06)"></rect><path class="cls-12" d="M1278.15,951.34l46.93,202.21,10.78-.35-7-179,5,1.16,38,35.71-12,82.68,10.38,2.13,26.6-87.42-31.52-80.84s-17.21-22-49.4-11.43S1278.15,951.34,1278.15,951.34Z" transform="translate(-12.27 -45.5)"></path><path class="cls-4" d="M1322.07,831.17c1.6,59.62,47,96.87,47,96.87s-11.91-3.56-44.38,5-48.44,29.8-48.44,29.8c-35.83-136-55.72-123.31-120-210.87,2.25-3,7.45-11.85,7.45-11.85s59.6,67.52,96.33,67.85c19.69.18,34.24-2.84,47.2-3S1365,837,1420.49,865.12a71.57,71.57,0,0,1-4.53,8.52s-37.7-13.31-92.19-33.15" transform="translate(-12.27 -45.5)"></path><path class="cls-12" d="M1244.93,765.94c-12.09,11.29-6.52,23.46-6.52,23.46l5.06-1.2s1.17,9.37,6.3,10c-3-14.14,4.15-11.15,5-5.59,2.18,26.53-25.52,81.84-17.6,112.13s51.3,11.22,59.37,8.16c21.23-8,34.8-43.88,8.55-82.18-6.37-9.63-16-23.3-12.89-37.74C1296.27,773.63,1272.74,740,1244.93,765.94Z" transform="translate(-12.27 -45.5)"></path><polygon class="cls-4" points="1313.03 1107.32 1310.06 1117.53 1326.74 1117.53 1323.58 1107.69 1313.03 1107.32"></polygon><path class="cls-4" d="M1359.88,1093.75l-3.39,9.42,34.8,5.76s.8-4.75,0-5-13.31-8.34-13.31-8.34Z" transform="translate(-12.27 -45.5)"></path><line class="cls-14" x1="1315.06" y1="925.85" x2="1327.26" y2="938.89"></line><path class="cls-4" d="M1163.64,740.08s-6.45-7.92-15.24-9.58-8,11.18-7.32,16.3,15.11,5.13,15.11,5.13Z" transform="translate(-12.27 -45.5)"></path><line class="cls-14" x1="1317.14" y1="928.28" x2="1307.87" y2="932.04"></line><rect class="cls-4" x="1365.98" y="829.19" width="63.17" height="3.55"></rect><polygon class="cls-4" points="1284.72 1335.95 1303.88 1335.95 1430.04 829.19 1410.88 829.19 1284.72 1335.95"></polygon><path class="cls-11" d="M1364.6,1138.47c17.91,20.58,115.86,52.52,158.09-2.48" transform="translate(-12.27 -45.5)"></path><path class="cls-12" d="M1360.84,853.92s-31.85-15.55-38.57-21c.4,4,.93,7.51.93,7.51Z" transform="translate(-12.27 -45.5)"></path></g><g id="Layer_7" data-name="Layer 7"><path class="cls-11" d="M665.41,1170.61h0a52.12,52.12,0,0,1,52.12,52.12v2.42a0,0,0,0,1,0,0H613.29a0,0,0,0,1,0,0v-2.42a52.12,52.12,0,0,1,52.12-52.12Z"></path><rect class="cls-4" x="620.33" y="1230.39" width="89.86" height="88.29"></rect><rect class="cls-15" x="620.33" y="1257.73" width="44.93" height="33.62"></rect><rect class="cls-4" x="615.36" y="1221.17" width="99.79" height="9.22"></rect></g><g id="Layer_8" data-name="Layer 8"><path class="cls-4" d="M682.25,1367h-127v-16.34c0-6.27,4.27-11.34,9.53-11.34H601l69,8.5c6.94.85,12.22,7.81,12.22,16.12Z" transform="translate(-12.27 -45.5)"></path></g></svg>