<svg xmlns="http://www.w3.org/2000/svg" viewBox="0 0 1636.4 1508.98"><defs><style>.cls-1{fill:#4bdea0;}.cls-17,.cls-19,.cls-2,.cls-21,.cls-27,.cls-3,.cls-31,.cls-32,.cls-5,.cls-6{fill:none;}.cls-2{stroke:#4bdea0;}.cls-10,.cls-16,.cls-2,.cls-21,.cls-28,.cls-29,.cls-3,.cls-30,.cls-33,.cls-4,.cls-5{stroke-miterlimit:10;}.cls-10,.cls-11,.cls-14,.cls-16,.cls-17,.cls-18,.cls-19,.cls-2,.cls-21,.cls-22,.cls-23,.cls-24,.cls-25,.cls-26,.cls-27,.cls-3,.cls-33,.cls-34,.cls-5,.cls-6,.cls-8{stroke-width:2px;}.cls-24,.cls-3{stroke:#f4f4f4;}.cls-20,.cls-4,.cls-8{fill:#34e19f;}.cls-32,.cls-4,.cls-5,.cls-6{stroke:#fff;}.cls-11,.cls-14,.cls-17,.cls-18,.cls-19,.cls-22,.cls-23,.cls-24,.cls-25,.cls-26,.cls-27,.cls-31,.cls-32,.cls-34,.cls-6,.cls-8{stroke-linecap:round;stroke-linejoin:round;}.cls-34,.cls-7{fill:#230b44;}.cls-10,.cls-11,.cls-14,.cls-16,.cls-17,.cls-21,.cls-23,.cls-26,.cls-28,.cls-30,.cls-31,.cls-33,.cls-34,.cls-8{stroke:#240645;}.cls-10,.cls-11,.cls-30,.cls-9{fill:#240645;}.cls-12,.cls-16,.cls-18,.cls-23,.cls-28{fill:#fff;}.cls-13,.cls-14,.cls-24{fill:#f4f4f4;}.cls-15,.cls-25,.cls-26,.cls-29,.cls-33{fill:#dd3e3a;}.cls-18,.cls-19{stroke:#230b44;}.cls-22{fill:#d9413f;stroke:#d9413f;}.cls-25,.cls-27,.cls-29{stroke:#dd3e3a;}.cls-31{stroke-width:4px;}.cls-32{stroke-width:8px;}</style></defs><title>ShopifyIntricacies</title><g id="bbg"><path class="cls-1" d="M1105.42,716c244.19,207,586.62,589.64,413.17,706.51C1153.92,1668.27,591.78,1611.84,277.12,1481c-378.31-157.26-302.68-850.47,76.4-1138.13C766.2,29.75,776.79,437.49,1105.42,716Z" transform="translate(-28.46 -109.82)"></path><path class="cls-2" d="M829.23,468.39c455.07-59.51,604.17,38.33,601.3,235.06-6.33,433.82-560.09,795.17-928.15,779.65S-46.15,973.42,136.26,520.5,474.1,514.82,829.23,468.39Z" transform="translate(-28.46 -109.82)"></path><path class="cls-3" d="M621.39,1336.63c-462.27-64-589.64-192.78-546.4-372.79,95.35-396.93,717.8-586.27,1078-474.27,355.12,110.42,415.81,612,164.4,979.9C1058.13,1848.89,982.13,1386.58,621.39,1336.63Z" transform="translate(-28.46 -109.82)"></path></g><g id="plants"><path class="cls-4" d="M1523.8,1368.58c-8.53,8.5-5.54,28.81-14.45,36.18-9.57,7.92-29.91,1.85-39.08,8.27-10.84,7.6-11.54,28.19-20.5,33.37a44.34,44.34,0,0,1-14.53,5.64c3.36,2.11,6.65,3.62,9.7,3.6,9.08-.06,14.5-15.71,23.73-16.76,9-1,23.21,12.39,31.84,10.16,11.78-3,18.89-22.68,33.51-29.17,12.4-5.5,33.33,2,45.94-5.11s15.77-28.35,26.82-36.31c12.6-9.07,33.84-5.85,42.3-15,13.79-14.92,9.1-32.86,3.47-44.18-5.41-10.88-16.72-24.2-37.5-22.82-12.14.8-21.31,18.27-36.32,21.79a25.57,25.57,0,0,1-8.22.34c-2.64,13.39-3.55,26.74-9.91,34.75C1553.27,1362.54,1532.14,1360.28,1523.8,1368.58Z" transform="translate(-28.46 -109.82)"></path><line class="cls-5" x1="1421.3" y1="1320.5" x2="1589.71" y2="1224.42"></line><path class="cls-6" d="M1535.25,1242" transform="translate(-28.46 -109.82)"></path><path class="cls-7" d="M1534.94,1315.4c-12.91,4-19.34,23-32.14,27.55-13.2,4.66-33.07-5.07-45.18-.45-8.95,3.42-9.6,21.39-17.18,25.3-3.22,1.65-7.54,1.4-12,.7,1.93,6.28,3.73,12.29,2.38,17-3.81,13.31-23.21,21.79-24.59,31.84a29.32,29.32,0,0,0,6.75,23.25,12.7,12.7,0,0,1,3.09-.15c6.12.5,13.79,8,21.16,12.65a44.43,44.43,0,0,0,14.54-5.65c9-5.17,9.65-25.77,20.49-33.36,9.17-6.42,29.51-.36,39.08-8.28,8.91-7.37,5.92-27.68,14.45-36.17,8.34-8.31,29.47-6.05,36.8-15.27,6.36-8,7.27-21.37,9.91-34.76C1560.53,1318.48,1545.83,1312,1534.94,1315.4Z" transform="translate(-28.46 -109.82)"></path><path class="cls-4" d="M1406.19,1417.36c1.38-10,20.78-18.53,24.59-31.84,1.35-4.73-.45-10.74-2.38-17-7.47-1.17-15.45-3.59-19.77-.64-8.09,5.53-5.41,24.16-11.45,29.69-7.67,7-24.61,2-29.33,8.09-9.5,12.35-.74,28.84-.61,31.54.09,1.85,4.72,11.69,21.8,14.71,7.47,1.32,14.82-9.69,23.9-11.28A29.32,29.32,0,0,1,1406.19,1417.36Z" transform="translate(-28.46 -109.82)"></path><path class="cls-4" d="M1412.94,1440.61c4.13,5.1,8.69,8.11,9.46,9.4s5.69,4.67,14.79,3.1c-7.37-4.63-15-12.15-21.16-12.65A12.7,12.7,0,0,0,1412.94,1440.61Z" transform="translate(-28.46 -109.82)"></path><path class="cls-6" d="M1526.39,1359.84" transform="translate(-28.46 -109.82)"></path><path class="cls-4" d="M1437.15,924.08c-13.9-1.11-33.36,3.47-42.85,30.74-5.54,15.92,7.41,40.25,3.12,61.79-3.62,18.19-25.07,34.74-27.92,55-2.71,19.23,13.27,41.25,11.16,60.72-2.18,20.09-22.48,38.09-24.13,56.77-1.22,13.8,16.71,27.74,16.7,40.17,0,14-17.79,28-16.6,40.24,1.38,14.26,21.71,24.47,24.17,36.15,3.11,14.8-10.91,32.52-7.15,43,7.57,21,28.92,22,31.73,23.8,1.93,1.24,14.36,2.57,26.37-16.81,5.84-9.41-3.87-29.76,2.53-42.44,5.41-10.72,27.64-14.77,32.68-27.15,4.69-11.51-8.36-29.78-4.59-42.21,3.68-12.14,24.75-20.28,27-32.82,3.08-17.11-13.15-40.43-12.09-63.63.9-19.68,19.54-40.63,18.87-61.78-.65-21-20.54-40.62-22.83-60.4-2.61-22.54,11.78-47,6.9-64.41C1472.29,932.41,1451.61,925.23,1437.15,924.08Z" transform="translate(-28.46 -109.82)"></path><path class="cls-6" d="M1461.66,1240.35" transform="translate(-28.46 -109.82)"></path><line class="cls-8" x1="1403" y1="877.57" x2="1372.69" y2="1239.21"></line><path class="cls-4" d="M1643,1093c-11.13-6.75-29.38-11.22-49.13,6.91-11.53,10.59-11.25,35.77-24.17,51.44-10.91,13.23-36,17.65-47.14,32.85-10.6,14.45-6.79,39-17,53.94-10.53,15.39-35.29,21.45-44.77,35.91-7,10.69,2,29.54-3.44,39.62-6.08,11.36-27,15.26-31.31,25.65-5,12.16,7.54,29,4.53,39.49-3.81,13.32-23.2,21.8-24.58,31.85-2.78,20.23,14.64,30,16.2,32.64,1.08,1.82,10.89,8.13,29.33-2.54,9-5.18,9.65-25.77,20.5-33.36,9.17-6.43,29.5-.36,39.08-8.28,8.9-7.37,5.91-27.68,14.44-36.18,8.35-8.3,29.48-6,36.8-15.27,10-12.57,6.53-38.32,17.47-56.7,9.28-15.58,33.93-24.74,42.54-42.18,8.54-17.27.44-41.59,7.09-58.6,7.58-19.38,30.22-33.2,33.68-49.35C1668.71,1114.5,1654.53,1100,1643,1093Z" transform="translate(-28.46 -109.82)"></path><line class="cls-6" x1="1597.2" y1="1009.13" x2="1400.27" y2="1312.73"></line><path class="cls-9" d="M1479.83,979.78s-18.41,13-22.23,24.22-6.43,27.62-3.95,39.15,5.51,25.55,4.44,35.22-7.27,26.17-16.59,37.09,29,156.29,29,156.29l90.26-217-21.48-82.12Z" transform="translate(-28.46 -109.82)"></path><path class="cls-7" d="M1448.69,1408.52c2.2,2,17.74,6.3,37.13-15.83,9.42-10.75,1.36-38.7,12.18-53.49,9.16-12.51,38.32-13,47.35-27.66,8.4-13.67-4.36-39.69,3.07-54.71,7.25-14.69,35.79-20.59,41.32-36.08,7.54-21.13-10.51-63.86-4.25-93.18,3.57-16.73,11.84-25.9,29.32-39-6.68,1.52-13.59,4.55-21,11.34-11.53,10.59-11.25,35.77-24.17,51.44-10.91,13.23-36,17.65-47.14,32.85-10.6,14.45-6.79,39-17,53.94-10.53,15.39-35.29,21.45-44.77,35.91-7,10.69,2,29.54-3.44,39.62-6.08,11.36-27,15.26-31.31,25.65-5,12.16,7.54,29,4.53,39.49-1.31,4.61-4.5,8.64-8.16,12.35C1432.31,1403,1446.44,1406.48,1448.69,1408.52Z" transform="translate(-28.46 -109.82)"></path><path class="cls-4" d="M1576.69,837c-17.46-4.35-43.2-2.63-61,30.08-10.42,19.1.91,52.81-9.1,79.33-8.45,22.39-39.25,38.93-47.15,64.07-7.51,23.9,8.17,55.31,1.37,79.65-7,25.12-36.67,43.75-42.71,67.18-4.47,17.31,15.4,38.85,12.77,54.67-3,17.84-28.57,31.93-29.64,47.72-1.25,18.45,22.47,35.74,23.13,51.12.84,19.51-20.75,39.1-18.17,53.18,5.19,28.36,32.17,34.12,35.36,37,2.2,2,17.74,6.31,37.13-15.83,9.42-10.74,1.36-38.7,12.19-53.49,9.15-12.51,38.31-13,47.34-27.66,8.4-13.67-4.35-39.68,3.07-54.7,7.25-14.69,35.79-20.6,41.32-36.09,7.54-21.12-8.2-54.24-1.94-83.56,5.31-24.86,33.46-47.6,37.08-74.66,3.59-26.82-17.57-56.06-16.31-81.72,1.44-29.25,24.94-57.39,22.4-80.54C1619.66,855,1594.85,841.48,1576.69,837Z" transform="translate(-28.46 -109.82)"></path><line class="cls-6" x1="1532.28" y1="781.27" x2="1406.78" y2="1257.79"></line></g><g id="laptop"><polyline class="cls-10" points="1418.38 1371.23 1418.38 1371.23 215.34 1371.23"></polyline><path class="cls-11" d="M253.8,555.72H1379.91a38.46,38.46,0,0,1,38.46,38.46v777a0,0,0,0,1,0,0h-1203a0,0,0,0,1,0,0v-777A38.46,38.46,0,0,1,253.8,555.72Z"></path><circle class="cls-6" cx="816.86" cy="571.27" r="6.99"></circle></g><g id="website"><rect class="cls-12" x="235.71" y="588.04" width="1162.3" height="744.57"></rect><rect class="cls-13" x="235.71" y="588.04" width="1162.3" height="62.37"></rect><rect class="cls-14" x="499.47" y="909.64" width="291.73" height="291.73"></rect><path class="cls-9" d="M754.81,1131.51c0,1.18.07,2.37.07,3.57a95.89,95.89,0,0,1-157.48,73.5,87.79,87.79,0,0,0,157.41-77.07Z" transform="translate(-28.46 -109.82)"></path><path class="cls-15" d="M754.88,1135.08c0-1.2,0-2.39-.07-3.57a87.79,87.79,0,1,0-157.41,77.07,95.89,95.89,0,0,0,157.48-73.5Z" transform="translate(-28.46 -109.82)"></path><rect class="cls-11" x="811.53" y="909.64" width="265.43" height="27.88"></rect><rect class="cls-16" x="811.53" y="1059.06" width="80.51" height="30.46" rx="3"></rect><rect class="cls-10" x="912.14" y="1059.06" width="80.51" height="30.46" rx="3"></rect><line class="cls-17" x1="811.53" y1="962.02" x2="1120.27" y2="962.02"></line><line class="cls-17" x1="811.53" y1="983.34" x2="1120.27" y2="983.34"></line><line class="cls-17" x1="811.53" y1="1004.66" x2="1101.64" y2="1004.66"></line><line class="cls-17" x1="811.53" y1="1025.98" x2="1065.44" y2="1025.98"></line><circle class="cls-9" cx="255.72" cy="606.22" r="6.54"></circle><circle class="cls-9" cx="274.38" cy="606.22" r="6.54"></circle><circle class="cls-9" cx="293.03" cy="606.22" r="6.54"></circle><rect class="cls-18" x="513.61" y="613.02" width="603.17" height="17.81" rx="8.91"></rect><path class="cls-19" d="M524,736.91h0a5.17,5.17,0,0,1-5.7-4.57h0a5.17,5.17,0,0,1,4.57-5.71h0a5.17,5.17,0,0,1,5.7,4.57h0" transform="translate(-28.46 -109.82)"></path><polyline class="cls-19" points="479.01 617.12 483.79 621.9 479.14 626.55"></polyline><line class="cls-19" x1="471.52" y1="621.9" x2="483.78" y2="621.9"></line><polyline class="cls-19" points="459.09 617.12 454.31 621.9 458.96 626.55"></polyline><line class="cls-19" x1="466.58" y1="621.9" x2="454.32" y2="621.9"></line><polyline class="cls-19" points="496.78 620.01 500.18 621.5 501.67 618.1"></polyline><rect class="cls-20" x="308.6" y="710.91" width="1022.05" height="158.42"></rect><line class="cls-21" x1="565.37" y1="681.72" x2="646.75" y2="681.72"></line><line class="cls-21" x1="689.74" y1="681.72" x2="771.12" y2="681.72"></line><line class="cls-21" x1="814.11" y1="681.72" x2="895.5" y2="681.72"></line><line class="cls-21" x1="938.48" y1="681.72" x2="1019.87" y2="681.72"></line><line class="cls-17" x1="811.53" y1="1105.73" x2="873.99" y2="1105.73"></line><line class="cls-17" x1="912.14" y1="1105.73" x2="974.59" y2="1105.73"></line><polygon class="cls-22" points="1189.97 1168.11 1175.35 1157.06 1178.05 1175.19 1180.81 1170.24 1184.75 1176.81 1188.24 1174.73 1184.3 1168.17 1189.97 1168.11"></polygon><polyline class="cls-17" points="1290.18 676.52 1293.17 676.52 1298.67 691.35 1318.09 691.35"></polyline><polyline class="cls-17" points="1297.6 679.15 1321.15 679.15 1318.36 687.53 1301.46 687.53"></polyline><circle class="cls-17" cx="1303.39" cy="696.05" r="1.93"></circle><circle class="cls-17" cx="1314.11" cy="696.05" r="1.93"></circle><circle class="cls-17" cx="1259.12" cy="684.24" r="7.83"></circle><line class="cls-17" x1="1266.94" y1="692.36" x2="1272.56" y2="697.97"></line><polygon class="cls-23" points="819.36 1133.21 821.78 1138.12 827.19 1138.9 823.27 1142.72 824.2 1148.11 819.36 1145.56 814.52 1148.11 815.44 1142.72 811.53 1138.9 816.94 1138.12 819.36 1133.21"></polygon><polygon class="cls-23" points="841.27 1133.21 843.69 1138.12 849.1 1138.9 845.19 1142.72 846.11 1148.11 841.27 1145.56 836.43 1148.11 837.36 1142.72 833.44 1138.9 838.85 1138.12 841.27 1133.21"></polygon><polygon class="cls-23" points="863.18 1133.21 865.61 1138.12 871.02 1138.9 867.1 1142.72 868.02 1148.11 863.18 1145.56 858.35 1148.11 859.27 1142.72 855.36 1138.9 860.76 1138.12 863.18 1133.21"></polygon><polygon class="cls-23" points="885.1 1133.21 887.52 1138.12 892.93 1138.9 889.01 1142.72 889.94 1148.11 885.1 1145.56 880.26 1148.11 881.18 1142.72 877.27 1138.9 882.68 1138.12 885.1 1133.21"></polygon><polygon class="cls-23" points="907.01 1133.21 909.43 1138.12 914.84 1138.9 910.93 1142.72 911.85 1148.11 907.01 1145.56 902.17 1148.11 903.1 1142.72 899.18 1138.9 904.59 1138.12 907.01 1133.21"></polygon><rect class="cls-24" x="732.75" y="1262.84" width="26.62" height="26.62"></rect><rect class="cls-24" x="768.15" y="1262.84" width="26.62" height="26.62"></rect><rect class="cls-24" x="803.55" y="1262.84" width="26.62" height="26.62"></rect><rect class="cls-24" x="838.95" y="1262.84" width="26.62" height="26.62"></rect><rect class="cls-24" x="874.35" y="1262.84" width="26.62" height="26.62"></rect></g><g id="confetti"><path class="cls-11" d="M1445.41,1511.72H245.21c-11.14,0-66.62-18.71-66.62-30.68H1512C1512,1493,1456.55,1511.72,1445.41,1511.72Z" transform="translate(-28.46 -109.82)"></path><line class="cls-6" x1="317.48" y1="1364.69" x2="1306.47" y2="1364.69"></line><circle class="cls-15" cx="1091.86" cy="388.65" r="4.47"></circle><circle class="cls-15" cx="759.37" cy="118.12" r="4.47"></circle><circle class="cls-15" cx="862.37" cy="133.26" r="2"></circle><circle class="cls-23" cx="1362.22" cy="444.2" r="32.16"></circle><circle class="cls-9" cx="1245.48" cy="324.98" r="6.13"></circle><circle class="cls-9" cx="384.19" cy="144.55" r="6.13"></circle><circle class="cls-23" cx="333.06" cy="387.77" r="11.59"></circle><circle class="cls-15" cx="685.15" cy="253.59" r="11.59"></circle><circle class="cls-9" cx="816.13" cy="156.53" r="9.07"></circle><circle class="cls-12" cx="685.15" cy="347.03" r="4.47"></circle><circle class="cls-15" cx="959.32" cy="253.59" r="2.71"></circle><circle class="cls-12" cx="450.55" cy="385.06" r="2.71"></circle><path class="cls-23" d="M821,332.48a27.32,27.32,0,0,1-39-38.26Z" transform="translate(-28.46 -109.82)"></path><path class="cls-25" d="M1337.4,586.27a33.83,33.83,0,0,1-64.33,20.94Z" transform="translate(-28.46 -109.82)"></path><path class="cls-9" d="M1418.85,358a46.71,46.71,0,1,1-46.32,81.13Z" transform="translate(-28.46 -109.82)"></path><path class="cls-9" d="M356.2,419.34a12.12,12.12,0,1,1-13.61,20.05Z" transform="translate(-28.46 -109.82)"></path><path class="cls-9" d="M998.5,390.59a12.12,12.12,0,1,1-13.61,20.05Z" transform="translate(-28.46 -109.82)"></path><path class="cls-12" d="M596.89,639.77a19.48,19.48,0,0,1,6.17-38.47Z" transform="translate(-28.46 -109.82)"></path><path class="cls-12" d="M466.33,602.19a8.16,8.16,0,1,1,2.59-16.11Z" transform="translate(-28.46 -109.82)"></path><path class="cls-12" d="M460.79,321.25a10.78,10.78,0,1,1,21.53.95Z" transform="translate(-28.46 -109.82)"></path><path class="cls-15" d="M403.14,582.41l5.13-10.61a.5.5,0,0,0-.24-.68L397.42,566a.5.5,0,0,0-.68.23l-5.13,10.62a.5.5,0,0,1-.68.23l-10.62-5.13a.52.52,0,0,0-.68.24l-5.13,10.61a.53.53,0,0,0,.24.69l10.61,5.13a.5.5,0,0,1,.24.68l-5.13,10.61a.51.51,0,0,0,.24.68l10.61,5.13a.5.5,0,0,0,.68-.24l5.13-10.61a.52.52,0,0,1,.68-.24l10.62,5.13a.5.5,0,0,0,.68-.23l5.13-10.62a.51.51,0,0,0-.24-.68l-10.61-5.13A.51.51,0,0,1,403.14,582.41Z" transform="translate(-28.46 -109.82)"></path><path class="cls-9" d="M1135.93,320,1134.5,317a.15.15,0,0,0-.19-.07l-3,1.43a.15.15,0,0,0-.07.19l1.43,3a.15.15,0,0,1-.07.19l-3,1.43a.14.14,0,0,0-.06.19l1.43,2.95a.14.14,0,0,0,.19.06l3-1.43a.15.15,0,0,1,.19.07l1.42,2.95a.15.15,0,0,0,.19.07l3-1.43a.15.15,0,0,0,.07-.19l-1.43-2.95a.15.15,0,0,1,.07-.19l2.95-1.43a.14.14,0,0,0,.06-.19l-1.43-2.95a.14.14,0,0,0-.19-.06l-3,1.42A.12.12,0,0,1,1135.93,320Z" transform="translate(-28.46 -109.82)"></path><path class="cls-9" d="M941,332.12l-3.38-7a.33.33,0,0,0-.44-.16l-7,3.38a.33.33,0,0,0-.16.44l3.38,7a.34.34,0,0,1-.16.45l-7,3.37a.34.34,0,0,0-.15.45l3.37,7a.34.34,0,0,0,.45.16l7-3.37a.33.33,0,0,1,.44.15l3.38,7a.32.32,0,0,0,.44.15l7-3.37a.34.34,0,0,0,.16-.45l-3.38-7a.34.34,0,0,1,.16-.45l7-3.37a.34.34,0,0,0,.16-.45l-3.37-7a.34.34,0,0,0-.45-.15l-7,3.37A.33.33,0,0,1,941,332.12Z" transform="translate(-28.46 -109.82)"></path><path class="cls-15" d="M1207.23,393.64l2-12.48a.55.55,0,0,0-.45-.63l-12.49-1.95a.53.53,0,0,0-.62.45l-2,12.49a.53.53,0,0,1-.62.45l-12.49-2a.54.54,0,0,0-.62.45L1178,403a.54.54,0,0,0,.46.62l12.48,2a.55.55,0,0,1,.46.62l-2,12.49a.54.54,0,0,0,.46.62l12.49,2a.55.55,0,0,0,.62-.46l2-12.48a.54.54,0,0,1,.62-.46l12.49,2a.56.56,0,0,0,.62-.46l2-12.48a.56.56,0,0,0-.46-.63l-12.49-2A.55.55,0,0,1,1207.23,393.64Z" transform="translate(-28.46 -109.82)"></path><path class="cls-15" d="M636.07,451.92l.65-4.16a.18.18,0,0,0-.15-.21l-4.16-.65a.2.2,0,0,0-.21.15l-.65,4.17a.19.19,0,0,1-.21.15l-4.16-.65a.18.18,0,0,0-.21.15l-.65,4.16a.18.18,0,0,0,.15.21l4.16.65a.2.2,0,0,1,.16.21l-.66,4.16a.2.2,0,0,0,.16.21l4.16.65a.18.18,0,0,0,.21-.15l.65-4.16a.19.19,0,0,1,.21-.16l4.16.66a.2.2,0,0,0,.21-.16l.65-4.16a.2.2,0,0,0-.15-.21l-4.17-.65A.18.18,0,0,1,636.07,451.92Z" transform="translate(-28.46 -109.82)"></path><path class="cls-9" d="M1099.75,429.21l.3-1.88a.08.08,0,0,0-.07-.1l-1.88-.29a.08.08,0,0,0-.1.07l-.29,1.88a.09.09,0,0,1-.1.07l-1.88-.3a.1.1,0,0,0-.1.07l-.29,1.89a.08.08,0,0,0,.07.09l1.88.3a.07.07,0,0,1,.07.09l-.29,1.88a.08.08,0,0,0,.06.1l1.89.29a.07.07,0,0,0,.09-.07l.3-1.88s0-.08.09-.07l1.89.3a.1.1,0,0,0,.09-.07l.3-1.89a.1.1,0,0,0-.07-.09l-1.89-.3A.08.08,0,0,1,1099.75,429.21Z" transform="translate(-28.46 -109.82)"></path><path class="cls-12" d="M781.73,539.55l5.73-1.66a.26.26,0,0,0,.17-.32L786,531.85a.26.26,0,0,0-.32-.18l-5.72,1.67a.26.26,0,0,1-.32-.18l-1.67-5.72a.25.25,0,0,0-.31-.18l-5.73,1.67a.26.26,0,0,0-.17.32l1.66,5.72a.26.26,0,0,1-.18.32L767.49,537a.26.26,0,0,0-.17.32L769,543a.26.26,0,0,0,.32.18L775,541.5a.26.26,0,0,1,.32.18L777,547.4a.26.26,0,0,0,.32.18l5.73-1.67a.26.26,0,0,0,.17-.32l-1.66-5.72A.26.26,0,0,1,781.73,539.55Z" transform="translate(-28.46 -109.82)"></path></g><g id="Layer_8" data-name="Layer 8"><rect class="cls-23" x="1029.54" y="538.7" width="71.18" height="97.27" rx="3" transform="translate(388.1 -551.47) rotate(28.9)"></rect><rect class="cls-26" x="1047.8" y="543.41" width="71.18" height="21.7" rx="3" transform="translate(374.39 -564.41) rotate(28.9)"></rect><circle class="cls-14" cx="1022.36" cy="451.88" r="6.62"></circle><circle class="cls-14" cx="1036.91" cy="459.91" r="6.62"></circle><circle class="cls-14" cx="1051.45" cy="467.94" r="6.62"></circle><circle class="cls-14" cx="1066" cy="475.97" r="6.62"></circle><circle class="cls-23" cx="1014.27" cy="466.53" r="6.62"></circle><circle class="cls-23" cx="1028.82" cy="474.56" r="6.62"></circle><circle class="cls-23" cx="1043.36" cy="482.59" r="6.62"></circle><circle class="cls-23" cx="1057.91" cy="490.63" r="6.62"></circle><circle class="cls-23" cx="1006.18" cy="481.18" r="6.62"></circle><circle class="cls-23" cx="1020.73" cy="489.21" r="6.62"></circle><circle class="cls-23" cx="1035.27" cy="497.25" r="6.62"></circle><circle class="cls-23" cx="998.09" cy="495.83" r="6.62"></circle><circle class="cls-23" cx="1012.64" cy="503.87" r="6.62"></circle><circle class="cls-23" cx="1027.19" cy="511.9" r="6.62"></circle><rect class="cls-26" x="1067.61" y="607.43" width="13.24" height="29.98" rx="6.62" transform="translate(406.19 -551.5) rotate(28.9)"></rect><rect class="cls-14" x="1051.84" y="548.47" width="63.1" height="11.59" rx="1.04" transform="translate(374.39 -564.41) rotate(28.9)"></rect><polygon class="cls-11" points="1114.7 248.04 988.39 234.2 948.8 127.77 1075.11 141.61 1114.7 248.04"></polygon><polygon class="cls-23" points="1003.72 167.6 969.41 163.85 958.65 134.93 992.97 138.69 1003.72 167.6"></polygon><polygon class="cls-14" points="1201.26 155.02 1114.7 248.04 1075.11 141.61 1161.67 48.58 1201.26 155.02"></polygon><line class="cls-27" x1="1109.65" y1="130.44" x2="1088.53" y2="153.14"></line><line class="cls-27" x1="1105.58" y1="145.07" x2="1091.25" y2="160.46"></line><line class="cls-27" x1="1085.96" y1="146.24" x2="1107.08" y2="123.54"></line><polygon class="cls-23" points="948.8 127.77 1035.2 34.32 1161.67 48.58 1075.11 141.61 948.8 127.77"></polygon><line class="cls-23" x1="994.48" y1="78.36" x2="1116.48" y2="97.14"></line><path class="cls-28" d="M993.85,528.58,877.45,477.4l6.06-102.52a6.53,6.53,0,0,0-3.89-6.36l-18.57-8.16a6.53,6.53,0,1,0-5.25,11.95l14.4,6.34-6.05,102.52a6.53,6.53,0,0,0,3.89,6.36l120.55,53a6.53,6.53,0,0,0,5.26-12Z" transform="translate(-28.46 -109.82)"></path><path class="cls-28" d="M1046.19,461.2,900,396.91a6.53,6.53,0,1,0-5.26,12l137.9,60.63-31,34.2L901.07,459.49a6.53,6.53,0,1,0-5.26,11.95l104.86,46.11a6.54,6.54,0,0,0,7.47-1.59l40.26-44.4a6.52,6.52,0,0,0-2.21-10.36Z" transform="translate(-28.46 -109.82)"></path><path class="cls-28" d="M895.06,505.66a19.62,19.62,0,1,0,10.06,25.86A19.63,19.63,0,0,0,895.06,505.66Zm-10.53,24a6.56,6.56,0,1,1,8.64-3.36A6.56,6.56,0,0,1,884.53,529.62Z" transform="translate(-28.46 -109.82)"></path><path class="cls-28" d="M961.6,534.92a19.62,19.62,0,1,0,10.07,25.86A19.64,19.64,0,0,0,961.6,534.92Zm-10.53,24a6.56,6.56,0,1,1,8.64-3.36A6.56,6.56,0,0,1,951.07,558.88Z" transform="translate(-28.46 -109.82)"></path><path class="cls-29" d="M649.12,492.59a42.24,42.24,0,1,0,42.23,42.24A42.29,42.29,0,0,0,649.12,492.59Zm0,74.48a32.24,32.24,0,1,1,32.23-32.24A32.27,32.27,0,0,1,649.12,567.07Z" transform="translate(-28.46 -109.82)"></path><path class="cls-30" d="M689.89,569.92a5,5,0,1,0-7.07,7.07l26.72,26.71a5,5,0,0,0,7.07,0,5,5,0,0,0,0-7.07Z" transform="translate(-28.46 -109.82)"></path><path class="cls-31" d="M510.13,429.91a16.52,16.52,0,0,1-6.74,13.9c-7.75,5.48-19.06,2.81-25.27-6s-5-20.33,2.79-25.82a16.56,16.56,0,0,1,15.35-1.73" transform="translate(-28.46 -109.82)"></path><line class="cls-31" x1="439.22" y1="329.06" x2="461.87" y2="313.04"></line><line class="cls-31" x1="468.14" y1="321.9" x2="445.49" y2="337.92"></line><path class="cls-32" d="M863.19,611s23.21-8.72,8.49-33.73-44.65-6.7-51.83,11.13c-4.58,11.37-14.82,17.39-36.19,11.46,5.44,8.78,10.5,14,13.27,32.53s17.85,16.07,17.85,16.07" transform="translate(-28.46 -109.82)"></path><line class="cls-32" x1="783.49" y1="465.17" x2="806.88" y2="504.93"></line><path class="cls-31" d="M1150.68,596.9l18-2.13a11.93,11.93,0,0,0,10.45-13.26h0a11.94,11.94,0,0,0-13.26-10.46l-2.51.3-5.62.67-2.51.3a12,12,0,0,1-13.27-10.46h0a11.94,11.94,0,0,1,10.46-13.26l18-2.13" transform="translate(-28.46 -109.82)"></path><line class="cls-31" x1="1125.46" y1="426.93" x2="1126.83" y2="438.44"></line><line class="cls-31" x1="1138.29" y1="497.15" x2="1136.89" y2="485.35"></line><ellipse class="cls-17" cx="618.71" cy="176.6" rx="33.48" ry="53.17" transform="translate(-52.55 94.87) rotate(-18.43)"></ellipse><ellipse class="cls-17" cx="603.65" cy="187.85" rx="33.48" ry="53.17" transform="translate(-56.88 90.68) rotate(-18.43)"></ellipse><polygon class="cls-11" points="531.95 51.95 590.74 242.55 520.9 245.66 502.17 76.04 520.12 70.04 531.95 51.95"></polygon><polygon class="cls-26" points="657.48 58.19 531.95 51.95 590.74 242.55 709.95 187.29 657.48 58.19"></polygon><rect class="cls-33" x="1262.33" y="264.11" width="108.39" height="50.41" rx="7.07" transform="translate(-32.41 450.17) rotate(-23.98)"></rect><path class="cls-12" d="M1287.45,288.76l5.72-2.54a1.47,1.47,0,0,1,1.82.41l15.54,17.2a1.15,1.15,0,0,1,.4,1,1,1,0,0,1-.65.75l-4.84,2.15a1.43,1.43,0,0,1-1.86-.43l-1.79-2.14-6.07,2.7.42,2.75a1.43,1.43,0,0,1-.94,1.67l-4.83,2.15a1,1,0,0,1-1,0,1.15,1.15,0,0,1-.47-1l-2.37-23.05A1.48,1.48,0,0,1,1287.45,288.76Zm6.83,13,3.85-1.71-4.73-5.74-.09,0Z" transform="translate(-28.46 -109.82)"></path><path class="cls-12" d="M1321,300.8l-7.09,3.15a1.1,1.1,0,0,1-1.65-.63l-9-20.22a1.12,1.12,0,0,1,.64-1.66l7.09-3.15q5.6-2.49,9.52-1t6.52,7.35q2.6,5.85,1.09,9.76T1321,300.8Zm-7.67-16.39-1,.44,4.69,10.55,1-.44a4.66,4.66,0,0,0,2.83-2.61c.35-1.05.07-2.59-.83-4.6s-1.85-3.25-2.86-3.7A4.71,4.71,0,0,0,1313.34,284.41Z" transform="translate(-28.46 -109.82)"></path><path class="cls-12" d="M1342.61,291.19l-7.09,3.16a1.11,1.11,0,0,1-1.65-.64l-9-20.22a1.1,1.1,0,0,1,.63-1.65l7.09-3.16q5.6-2.49,9.52-1t6.52,7.34q2.61,5.85,1.09,9.76T1342.61,291.19Zm-7.67-16.39-1,.44,4.69,10.56,1-.44a4.7,4.7,0,0,0,2.83-2.62c.35-1.05.07-2.58-.82-4.6s-1.85-3.24-2.87-3.7A4.71,4.71,0,0,0,1334.94,274.8Z" transform="translate(-28.46 -109.82)"></path><polygon class="cls-15" points="796.49 251.14 798.58 270.81 815.96 280.23 797.91 288.29 794.32 307.73 781.07 293.06 761.47 295.65 771.33 278.51 762.81 260.68 782.16 264.76 796.49 251.14"></polygon><path class="cls-20" d="M1235.27,517.77c.4-.08.65.1.76.54l.22,1a.56.56,0,0,1-.51.76,29.52,29.52,0,0,1-6.81.86q-13.54,0-13.55-10.94a11.57,11.57,0,0,1,3.91-9.2,15,15,0,0,1,10.18-3.4c3.87,0,6.91.9,9.15,2.72a8.84,8.84,0,0,1,3.36,7.24,9.54,9.54,0,0,1-2,6.39,6.42,6.42,0,0,1-5.11,2.39h-2a1.45,1.45,0,0,1-1.4-.8l-.54-1.05a5.1,5.1,0,0,1-4.11,1.82,5.58,5.58,0,0,1-3.91-1.37,5.15,5.15,0,0,1-1.5-4,11.66,11.66,0,0,1,.42-3.26,8,8,0,0,1,1.33-2.67,5.92,5.92,0,0,1,2.6-1.9,10.81,10.81,0,0,1,4-.67,12.7,12.7,0,0,1,5.7,1.18,1,1,0,0,1,.63,1.18l-1.46,9h.44a3.33,3.33,0,0,0,3-1.64,8.57,8.57,0,0,0,1-4.59,6.48,6.48,0,0,0-2.44-5.43q-2.43-1.89-7.24-1.89a12.25,12.25,0,0,0-8.16,2.57c-2,1.72-3,4.2-3,7.45q0,4.48,2.66,6.43t8.07,1.94A31,31,0,0,0,1235.27,517.77Zm-4.86-8,.57-3.5a5.38,5.38,0,0,0-1.44-.2,2.48,2.48,0,0,0-2.22,1.13,4.9,4.9,0,0,0-.74,2.72c0,1.47.52,2.2,1.58,2.2C1229.4,512.14,1230.15,511.36,1230.41,509.79Z" transform="translate(-28.46 -109.82)"></path><rect class="cls-14" x="371" y="306.22" width="83.48" height="45.29" transform="translate(128.51 -242.57) rotate(22.46)"></rect><polygon class="cls-34" points="414.02 255.84 385.64 214.73 336.88 223.95 414.02 255.84"></polygon><path class="cls-23" d="M382.63,291.91l24,43.52a5,5,0,0,0,5.82,2.4l47.35-14Z" transform="translate(-28.46 -109.82)"></path></g><g id="streamers"><path class="cls-27" d="M1223,625.15c30-60.21,64-43.27,94-103.49s-4-77.15,25.94-137.37,64-43.28,94-103.5" transform="translate(-28.46 -109.82)"></path><path class="cls-17" d="M899,313.37c-.63-33.64,37.36-34.35,36.73-68s-38.63-32.93-39.26-66.57,37.36-34.35,36.73-68" transform="translate(-28.46 -109.82)"></path><path class="cls-27" d="M522.57,638.58c-25-27.25,3-53-22.05-80.19s-53-1.55-78-28.8,3-53-22.05-80.2" transform="translate(-28.46 -109.82)"></path><path class="cls-17" d="M506.35,252.85c-17-18.13-43.91-11.7-56.5-40.67-14.86-34.2,20-49.34,5.13-83.54" transform="translate(-28.46 -109.82)"></path><path class="cls-6" d="M568.75,485.76c-14.86-34.2,20-49.34,5.13-83.54S524.16,383.17,509.3,349s20-49.35,5.13-83.55a43.73,43.73,0,0,0-8.08-12.58" transform="translate(-28.46 -109.82)"></path></g></svg>